<mxfile host="65bd71144e" scale="2" border="30">
    <diagram id="0QhtwqMjpmc_AO-MrRb4" name="第 1 页">
        <mxGraphModel dx="1767" dy="1015" grid="0" gridSize="10" guides="1" tooltips="1" connect="1" arrows="1" fold="1" page="1" pageScale="1" pageWidth="1654" pageHeight="2336" background="#FFFFFF" math="0" shadow="0">
            <root>
                <mxCell id="0"/>
                <mxCell id="1" parent="0"/>
                <mxCell id="570" value="" style="rounded=0;whiteSpace=wrap;html=1;fontSize=14;fontColor=#FFFFFF;strokeWidth=2;fillColor=#EDF2F4;strokeColor=none;" parent="1" vertex="1">
                    <mxGeometry x="644.13" y="110" width="179.25" height="208" as="geometry"/>
                </mxCell>
                <mxCell id="482" value="" style="rounded=1;whiteSpace=wrap;html=1;fillColor=#EDF2F4;strokeColor=none;" parent="1" vertex="1">
                    <mxGeometry x="118.75" y="270" width="70" height="40" as="geometry"/>
                </mxCell>
                <mxCell id="518" style="edgeStyle=none;rounded=0;sketch=0;orthogonalLoop=1;jettySize=auto;html=1;exitX=0.5;exitY=1;exitDx=0;exitDy=0;entryX=0.5;entryY=0;entryDx=0;entryDy=0;shadow=0;endArrow=oval;endFill=1;strokeColor=#999999;" parent="1" source="481" target="482" edge="1">
                    <mxGeometry relative="1" as="geometry"/>
                </mxCell>
                <mxCell id="481" value="" style="rounded=1;whiteSpace=wrap;html=1;fillColor=#EDF2F4;strokeColor=none;" parent="1" vertex="1">
                    <mxGeometry x="118.75" y="190" width="70" height="40" as="geometry"/>
                </mxCell>
                <mxCell id="516" style="edgeStyle=none;rounded=0;sketch=0;orthogonalLoop=1;jettySize=auto;html=1;exitX=0.5;exitY=1;exitDx=0;exitDy=0;entryX=0.5;entryY=0;entryDx=0;entryDy=0;shadow=0;endArrow=oval;endFill=1;strokeColor=#999999;" parent="1" source="479" target="481" edge="1">
                    <mxGeometry relative="1" as="geometry"/>
                </mxCell>
                <mxCell id="479" value="" style="rounded=1;whiteSpace=wrap;html=1;fillColor=#EDF2F4;strokeColor=none;" parent="1" vertex="1">
                    <mxGeometry x="68.75" y="110" width="70" height="40" as="geometry"/>
                </mxCell>
                <mxCell id="517" style="edgeStyle=none;rounded=0;sketch=0;orthogonalLoop=1;jettySize=auto;html=1;exitX=0.5;exitY=1;exitDx=0;exitDy=0;entryX=0.5;entryY=0;entryDx=0;entryDy=0;shadow=0;endArrow=oval;endFill=1;strokeColor=#999999;" parent="1" source="480" target="481" edge="1">
                    <mxGeometry relative="1" as="geometry"/>
                </mxCell>
                <mxCell id="480" value="" style="rounded=1;whiteSpace=wrap;html=1;fillColor=#EDF2F4;strokeColor=none;" parent="1" vertex="1">
                    <mxGeometry x="168.75" y="110" width="70" height="40" as="geometry"/>
                </mxCell>
                <mxCell id="515" value="" style="group" parent="1" vertex="1" connectable="0">
                    <mxGeometry x="338.13" y="115" width="211.25" height="190" as="geometry"/>
                </mxCell>
                <mxCell id="489" value="" style="rounded=1;whiteSpace=wrap;html=1;fillColor=#EDF2F4;strokeColor=none;" parent="515" vertex="1">
                    <mxGeometry x="78.24074074074076" y="30" width="54.76851851851852" height="130" as="geometry"/>
                </mxCell>
                <mxCell id="490" value="" style="rounded=1;whiteSpace=wrap;html=1;strokeColor=none;fillColor=#345253;" parent="515" vertex="1">
                    <mxGeometry x="86.06481481481481" y="80" width="39.12037037037038" height="30" as="geometry"/>
                </mxCell>
                <mxCell id="491" value="" style="rounded=1;whiteSpace=wrap;html=1;strokeColor=none;fillColor=#345253;" parent="515" vertex="1">
                    <mxGeometry x="86.06481481481481" y="40" width="39.12037037037038" height="30" as="geometry"/>
                </mxCell>
                <mxCell id="492" value="" style="rounded=1;whiteSpace=wrap;html=1;strokeColor=none;fillColor=#345253;" parent="515" vertex="1">
                    <mxGeometry x="86.06481481481481" y="120" width="39.12037037037038" height="30" as="geometry"/>
                </mxCell>
                <mxCell id="483" value="" style="rounded=1;whiteSpace=wrap;html=1;fillColor=#EDF2F4;strokeColor=none;" parent="515" vertex="1">
                    <mxGeometry width="54.76851851851852" height="90" as="geometry"/>
                </mxCell>
                <mxCell id="500" style="rounded=0;orthogonalLoop=1;jettySize=auto;html=1;exitX=1;exitY=0.5;exitDx=0;exitDy=0;endArrow=oval;endFill=1;strokeColor=#999999;entryX=0;entryY=0.5;entryDx=0;entryDy=0;" parent="515" source="484" target="491" edge="1">
                    <mxGeometry relative="1" as="geometry"/>
                </mxCell>
                <mxCell id="501" style="edgeStyle=none;rounded=0;orthogonalLoop=1;jettySize=auto;html=1;exitX=1;exitY=0.5;exitDx=0;exitDy=0;entryX=0;entryY=0.5;entryDx=0;entryDy=0;endArrow=oval;endFill=1;strokeColor=#999999;" parent="515" source="484" target="490" edge="1">
                    <mxGeometry relative="1" as="geometry"/>
                </mxCell>
                <mxCell id="502" style="edgeStyle=none;rounded=0;orthogonalLoop=1;jettySize=auto;html=1;exitX=1;exitY=0.5;exitDx=0;exitDy=0;entryX=0;entryY=0.5;entryDx=0;entryDy=0;endArrow=oval;endFill=1;strokeColor=#999999;shadow=0;sketch=0;" parent="515" source="484" target="492" edge="1">
                    <mxGeometry relative="1" as="geometry"/>
                </mxCell>
                <mxCell id="484" value="" style="rounded=1;whiteSpace=wrap;html=1;strokeColor=none;fillColor=#345253;" parent="515" vertex="1">
                    <mxGeometry x="7.824074074074073" y="10" width="39.12037037037038" height="30" as="geometry"/>
                </mxCell>
                <mxCell id="509" style="edgeStyle=none;rounded=0;sketch=0;orthogonalLoop=1;jettySize=auto;html=1;exitX=1;exitY=0.5;exitDx=0;exitDy=0;entryX=0;entryY=0.5;entryDx=0;entryDy=0;shadow=0;endArrow=oval;endFill=1;strokeColor=#999999;" parent="515" source="485" target="491" edge="1">
                    <mxGeometry relative="1" as="geometry"/>
                </mxCell>
                <mxCell id="510" style="edgeStyle=none;rounded=0;sketch=0;orthogonalLoop=1;jettySize=auto;html=1;exitX=1;exitY=0.5;exitDx=0;exitDy=0;shadow=0;endArrow=oval;endFill=1;strokeColor=#999999;" parent="515" source="485" edge="1">
                    <mxGeometry relative="1" as="geometry">
                        <mxPoint x="86.06481481481481" y="95" as="targetPoint"/>
                    </mxGeometry>
                </mxCell>
                <mxCell id="511" style="edgeStyle=none;rounded=0;sketch=0;orthogonalLoop=1;jettySize=auto;html=1;exitX=1;exitY=0.5;exitDx=0;exitDy=0;entryX=0;entryY=0.5;entryDx=0;entryDy=0;shadow=0;endArrow=oval;endFill=1;strokeColor=#999999;" parent="515" source="485" target="492" edge="1">
                    <mxGeometry relative="1" as="geometry"/>
                </mxCell>
                <mxCell id="485" value="" style="rounded=1;whiteSpace=wrap;html=1;strokeColor=none;fillColor=#345253;" parent="515" vertex="1">
                    <mxGeometry x="7.824074074074073" y="50" width="39.12037037037038" height="30" as="geometry"/>
                </mxCell>
                <mxCell id="486" value="" style="rounded=1;whiteSpace=wrap;html=1;fillColor=#EDF2F4;strokeColor=none;" parent="515" vertex="1">
                    <mxGeometry y="100" width="54.76851851851852" height="90" as="geometry"/>
                </mxCell>
                <mxCell id="506" style="edgeStyle=none;rounded=0;sketch=0;orthogonalLoop=1;jettySize=auto;html=1;shadow=0;endArrow=oval;endFill=1;strokeColor=#999999;exitX=1;exitY=0.5;exitDx=0;exitDy=0;" parent="515" source="487" edge="1">
                    <mxGeometry relative="1" as="geometry">
                        <mxPoint x="86.06481481481481" y="95" as="targetPoint"/>
                    </mxGeometry>
                </mxCell>
                <mxCell id="507" style="edgeStyle=none;rounded=0;sketch=0;orthogonalLoop=1;jettySize=auto;html=1;exitX=1;exitY=0.5;exitDx=0;exitDy=0;entryX=0;entryY=0.5;entryDx=0;entryDy=0;shadow=0;endArrow=oval;endFill=1;strokeColor=#999999;" parent="515" source="487" target="491" edge="1">
                    <mxGeometry relative="1" as="geometry"/>
                </mxCell>
                <mxCell id="508" style="edgeStyle=none;rounded=0;sketch=0;orthogonalLoop=1;jettySize=auto;html=1;exitX=1;exitY=0.5;exitDx=0;exitDy=0;entryX=0;entryY=0.5;entryDx=0;entryDy=0;shadow=0;endArrow=oval;endFill=1;strokeColor=#999999;" parent="515" source="487" target="492" edge="1">
                    <mxGeometry relative="1" as="geometry"/>
                </mxCell>
                <mxCell id="487" value="" style="rounded=1;whiteSpace=wrap;html=1;strokeColor=none;fillColor=#345253;" parent="515" vertex="1">
                    <mxGeometry x="7.824074074074073" y="110" width="39.12037037037038" height="30" as="geometry"/>
                </mxCell>
                <mxCell id="512" style="edgeStyle=none;rounded=0;sketch=0;orthogonalLoop=1;jettySize=auto;html=1;exitX=1;exitY=0.5;exitDx=0;exitDy=0;entryX=0;entryY=0.5;entryDx=0;entryDy=0;shadow=0;endArrow=oval;endFill=1;strokeColor=#999999;" parent="515" source="488" target="491" edge="1">
                    <mxGeometry relative="1" as="geometry"/>
                </mxCell>
                <mxCell id="513" style="edgeStyle=none;rounded=0;sketch=0;orthogonalLoop=1;jettySize=auto;html=1;exitX=1;exitY=0.5;exitDx=0;exitDy=0;shadow=0;endArrow=oval;endFill=1;strokeColor=#999999;" parent="515" source="488" edge="1">
                    <mxGeometry relative="1" as="geometry">
                        <mxPoint x="86.06481481481481" y="95" as="targetPoint"/>
                    </mxGeometry>
                </mxCell>
                <mxCell id="514" style="edgeStyle=none;rounded=0;sketch=0;orthogonalLoop=1;jettySize=auto;html=1;exitX=1;exitY=0.5;exitDx=0;exitDy=0;entryX=0;entryY=0.5;entryDx=0;entryDy=0;shadow=0;endArrow=oval;endFill=1;strokeColor=#999999;" parent="515" source="488" target="492" edge="1">
                    <mxGeometry relative="1" as="geometry"/>
                </mxCell>
                <mxCell id="488" value="" style="rounded=1;whiteSpace=wrap;html=1;strokeColor=none;fillColor=#345253;" parent="515" vertex="1">
                    <mxGeometry x="7.824074074074073" y="150" width="39.12037037037038" height="30" as="geometry"/>
                </mxCell>
                <mxCell id="493" value="" style="rounded=1;whiteSpace=wrap;html=1;fillColor=#EDF2F4;strokeColor=none;" parent="515" vertex="1">
                    <mxGeometry x="156.48148148148152" y="30" width="54.76851851851852" height="130" as="geometry"/>
                </mxCell>
                <mxCell id="494" value="" style="rounded=1;whiteSpace=wrap;html=1;strokeColor=none;fillColor=#345253;" parent="515" vertex="1">
                    <mxGeometry x="164.30555555555557" y="80" width="39.12037037037038" height="30" as="geometry"/>
                </mxCell>
                <mxCell id="495" value="" style="rounded=1;whiteSpace=wrap;html=1;strokeColor=none;fillColor=#345253;" parent="515" vertex="1">
                    <mxGeometry x="164.30555555555557" y="40" width="39.12037037037038" height="30" as="geometry"/>
                </mxCell>
                <mxCell id="496" value="" style="rounded=1;whiteSpace=wrap;html=1;strokeColor=none;fillColor=#345253;" parent="515" vertex="1">
                    <mxGeometry x="164.30555555555557" y="120" width="39.12037037037038" height="30" as="geometry"/>
                </mxCell>
                <mxCell id="497" style="edgeStyle=orthogonalEdgeStyle;rounded=0;orthogonalLoop=1;jettySize=auto;html=1;exitX=1;exitY=0.5;exitDx=0;exitDy=0;entryX=0;entryY=0.5;entryDx=0;entryDy=0;endArrow=oval;endFill=1;strokeColor=#999999;" parent="515" source="491" target="495" edge="1">
                    <mxGeometry relative="1" as="geometry"/>
                </mxCell>
                <mxCell id="498" style="edgeStyle=orthogonalEdgeStyle;rounded=0;orthogonalLoop=1;jettySize=auto;html=1;exitX=1;exitY=0.5;exitDx=0;exitDy=0;entryX=0;entryY=0.5;entryDx=0;entryDy=0;endArrow=oval;endFill=1;strokeColor=#999999;" parent="515" source="490" target="494" edge="1">
                    <mxGeometry relative="1" as="geometry"/>
                </mxCell>
                <mxCell id="499" style="edgeStyle=orthogonalEdgeStyle;rounded=0;orthogonalLoop=1;jettySize=auto;html=1;exitX=1;exitY=0.5;exitDx=0;exitDy=0;entryX=0;entryY=0.5;entryDx=0;entryDy=0;endArrow=oval;endFill=1;strokeColor=#999999;" parent="515" source="492" target="496" edge="1">
                    <mxGeometry relative="1" as="geometry"/>
                </mxCell>
                <mxCell id="519" value="" style="endArrow=none;html=1;shadow=0;strokeColor=#999999;dashed=1;startArrow=none;" parent="1" source="532" edge="1">
                    <mxGeometry width="50" height="50" relative="1" as="geometry">
                        <mxPoint x="300" y="400" as="sourcePoint"/>
                        <mxPoint x="300" y="80" as="targetPoint"/>
                    </mxGeometry>
                </mxCell>
                <mxCell id="520" value="RDD Objects" style="text;html=1;strokeColor=none;fillColor=none;align=center;verticalAlign=middle;whiteSpace=wrap;rounded=0;fontColor=#345253;fontStyle=3;fontSize=14;" parent="1" vertex="1">
                    <mxGeometry x="90" y="40" width="127.5" height="20" as="geometry"/>
                </mxCell>
                <mxCell id="521" value="DAGScheduler" style="text;html=1;strokeColor=none;fillColor=none;align=center;verticalAlign=middle;whiteSpace=wrap;rounded=0;fontColor=#345253;fontStyle=3;fontSize=14;" parent="1" vertex="1">
                    <mxGeometry x="380" y="40" width="127.5" height="20" as="geometry"/>
                </mxCell>
                <mxCell id="522" value="" style="endArrow=none;html=1;shadow=0;strokeColor=#999999;dashed=1;startArrow=none;" parent="1" source="537" edge="1">
                    <mxGeometry width="50" height="50" relative="1" as="geometry">
                        <mxPoint x="590" y="400" as="sourcePoint"/>
                        <mxPoint x="590" y="80" as="targetPoint"/>
                    </mxGeometry>
                </mxCell>
                <mxCell id="523" value="TaskScheduler" style="text;html=1;strokeColor=none;fillColor=none;align=center;verticalAlign=middle;whiteSpace=wrap;rounded=0;fontColor=#345253;fontStyle=3;fontSize=14;" parent="1" vertex="1">
                    <mxGeometry x="670" y="40" width="127.5" height="20" as="geometry"/>
                </mxCell>
                <mxCell id="524" value="Worker" style="text;html=1;strokeColor=none;fillColor=none;align=center;verticalAlign=middle;whiteSpace=wrap;rounded=0;fontColor=#345253;fontStyle=3;fontSize=14;" parent="1" vertex="1">
                    <mxGeometry x="960" y="40" width="127.5" height="20" as="geometry"/>
                </mxCell>
                <mxCell id="525" value="rdd1.join(rdd2)&lt;br&gt;.groupBy(...)&lt;br&gt;.filter(...)" style="text;html=1;strokeColor=none;fillColor=none;align=center;verticalAlign=middle;whiteSpace=wrap;rounded=0;fontSize=14;fontStyle=0" parent="1" vertex="1">
                    <mxGeometry x="91.25" y="330" width="125" height="70" as="geometry"/>
                </mxCell>
                <mxCell id="532" value="&lt;font color=&quot;#345253&quot;&gt;&lt;b&gt;DAG&lt;/b&gt;&lt;/font&gt;" style="text;html=1;strokeColor=none;fillColor=none;align=center;verticalAlign=middle;whiteSpace=wrap;rounded=0;fontSize=14;fontColor=#000000;" parent="1" vertex="1">
                    <mxGeometry x="280" y="180" width="40" height="20" as="geometry"/>
                </mxCell>
                <mxCell id="533" value="" style="endArrow=none;html=1;shadow=0;strokeColor=#999999;dashed=1;startArrow=none;" parent="1" source="534" target="532" edge="1">
                    <mxGeometry width="50" height="50" relative="1" as="geometry">
                        <mxPoint x="300" y="400" as="sourcePoint"/>
                        <mxPoint x="300" y="80" as="targetPoint"/>
                    </mxGeometry>
                </mxCell>
                <mxCell id="534" value="" style="shape=singleArrow;whiteSpace=wrap;html=1;fontSize=14;fontColor=#000000;arrowWidth=0.45185173882378343;arrowSize=0.2699998304579003;strokeColor=none;fillColor=#6E96A6;" parent="1" vertex="1">
                    <mxGeometry x="283.75" y="200" width="32.5" height="20" as="geometry"/>
                </mxCell>
                <mxCell id="535" value="" style="endArrow=none;html=1;shadow=0;strokeColor=#999999;dashed=1;" parent="1" target="534" edge="1">
                    <mxGeometry width="50" height="50" relative="1" as="geometry">
                        <mxPoint x="300" y="400" as="sourcePoint"/>
                        <mxPoint x="300" y="200" as="targetPoint"/>
                    </mxGeometry>
                </mxCell>
                <mxCell id="537" value="&lt;font color=&quot;#345253&quot;&gt;&lt;b&gt;TaskSet&lt;/b&gt;&lt;/font&gt;" style="text;html=1;strokeColor=none;fillColor=none;align=center;verticalAlign=middle;whiteSpace=wrap;rounded=0;fontSize=14;fontColor=#000000;" parent="1" vertex="1">
                    <mxGeometry x="570" y="180" width="40" height="20" as="geometry"/>
                </mxCell>
                <mxCell id="538" value="" style="endArrow=none;html=1;shadow=0;strokeColor=#999999;dashed=1;startArrow=none;" parent="1" source="536" target="537" edge="1">
                    <mxGeometry width="50" height="50" relative="1" as="geometry">
                        <mxPoint x="590" y="400" as="sourcePoint"/>
                        <mxPoint x="590" y="80" as="targetPoint"/>
                    </mxGeometry>
                </mxCell>
                <mxCell id="536" value="" style="shape=singleArrow;whiteSpace=wrap;html=1;fontSize=14;fontColor=#000000;arrowWidth=0.45185173882378343;arrowSize=0.2699998304579003;strokeColor=none;fillColor=#6E96A6;" parent="1" vertex="1">
                    <mxGeometry x="573.75" y="200" width="32.5" height="20" as="geometry"/>
                </mxCell>
                <mxCell id="539" value="" style="endArrow=none;html=1;shadow=0;strokeColor=#999999;dashed=1;" parent="1" target="536" edge="1">
                    <mxGeometry width="50" height="50" relative="1" as="geometry">
                        <mxPoint x="590" y="400" as="sourcePoint"/>
                        <mxPoint x="590" y="200" as="targetPoint"/>
                    </mxGeometry>
                </mxCell>
                <mxCell id="541" value="split graph into stages of tasks" style="text;html=1;strokeColor=none;fillColor=none;align=center;verticalAlign=middle;whiteSpace=wrap;rounded=0;fontSize=14;fontColor=#000000;" parent="1" vertex="1">
                    <mxGeometry x="323.76" y="340" width="240" height="20" as="geometry"/>
                </mxCell>
                <mxCell id="542" value="submit each stage as ready" style="text;html=1;strokeColor=none;fillColor=none;align=center;verticalAlign=middle;whiteSpace=wrap;rounded=0;fontSize=14;fontColor=#000000;" parent="1" vertex="1">
                    <mxGeometry x="320" y="370" width="240" height="20" as="geometry"/>
                </mxCell>
                <mxCell id="543" value="launch tasks via cluster manager" style="text;html=1;strokeColor=none;fillColor=none;align=center;verticalAlign=middle;whiteSpace=wrap;rounded=0;fontSize=14;fontColor=#000000;" parent="1" vertex="1">
                    <mxGeometry x="613.75" y="340" width="240" height="20" as="geometry"/>
                </mxCell>
                <mxCell id="544" value="retry failed or straggling tasks" style="text;html=1;strokeColor=none;fillColor=none;align=center;verticalAlign=middle;whiteSpace=wrap;rounded=0;fontSize=14;fontColor=#000000;" parent="1" vertex="1">
                    <mxGeometry x="613.75" y="370" width="240" height="20" as="geometry"/>
                </mxCell>
                <mxCell id="545" value="&lt;font style=&quot;font-size: 14px&quot;&gt;execute tasks&lt;/font&gt;" style="text;html=1;strokeColor=none;fillColor=none;align=center;verticalAlign=middle;whiteSpace=wrap;rounded=0;fontSize=14;fontColor=#000000;" parent="1" vertex="1">
                    <mxGeometry x="903.75" y="340" width="240" height="20" as="geometry"/>
                </mxCell>
                <mxCell id="546" value="store and serve blocks" style="text;html=1;strokeColor=none;fillColor=none;align=center;verticalAlign=middle;whiteSpace=wrap;rounded=0;fontSize=14;fontColor=#000000;" parent="1" vertex="1">
                    <mxGeometry x="903.75" y="370" width="240" height="20" as="geometry"/>
                </mxCell>
                <mxCell id="547" value="" style="endArrow=none;html=1;shadow=0;strokeColor=#999999;dashed=1;startArrow=none;" parent="1" source="548" edge="1">
                    <mxGeometry width="50" height="50" relative="1" as="geometry">
                        <mxPoint x="880" y="400" as="sourcePoint"/>
                        <mxPoint x="880" y="80" as="targetPoint"/>
                    </mxGeometry>
                </mxCell>
                <mxCell id="548" value="&lt;font color=&quot;#345253&quot;&gt;&lt;b&gt;Task&lt;/b&gt;&lt;/font&gt;" style="text;html=1;strokeColor=none;fillColor=none;align=center;verticalAlign=middle;whiteSpace=wrap;rounded=0;fontSize=14;fontColor=#000000;" parent="1" vertex="1">
                    <mxGeometry x="860" y="180" width="40" height="20" as="geometry"/>
                </mxCell>
                <mxCell id="549" value="" style="endArrow=none;html=1;shadow=0;strokeColor=#999999;dashed=1;startArrow=none;" parent="1" source="550" target="548" edge="1">
                    <mxGeometry width="50" height="50" relative="1" as="geometry">
                        <mxPoint x="880" y="400" as="sourcePoint"/>
                        <mxPoint x="880" y="80" as="targetPoint"/>
                    </mxGeometry>
                </mxCell>
                <mxCell id="550" value="" style="shape=singleArrow;whiteSpace=wrap;html=1;fontSize=14;fontColor=#000000;arrowWidth=0.45185173882378343;arrowSize=0.2699998304579003;strokeColor=none;fillColor=#6E96A6;" parent="1" vertex="1">
                    <mxGeometry x="863.75" y="200" width="32.5" height="20" as="geometry"/>
                </mxCell>
                <mxCell id="551" value="" style="endArrow=none;html=1;shadow=0;strokeColor=#999999;dashed=1;" parent="1" target="550" edge="1">
                    <mxGeometry width="50" height="50" relative="1" as="geometry">
                        <mxPoint x="880" y="400" as="sourcePoint"/>
                        <mxPoint x="880" y="200" as="targetPoint"/>
                    </mxGeometry>
                </mxCell>
                <mxCell id="553" value="" style="rounded=0;whiteSpace=wrap;html=1;fontSize=14;fontColor=#000000;fillColor=#EDF2F4;strokeColor=none;" parent="1" vertex="1">
                    <mxGeometry x="929.75" y="110" width="188" height="98" as="geometry"/>
                </mxCell>
                <mxCell id="557" value="&lt;font color=&quot;#345253&quot;&gt;Executor&lt;/font&gt;" style="text;html=1;strokeColor=none;fillColor=none;align=center;verticalAlign=middle;whiteSpace=wrap;rounded=0;fontSize=14;fontColor=#FFFFFF;fontStyle=1" parent="1" vertex="1">
                    <mxGeometry x="994.75" y="120" width="58" height="20" as="geometry"/>
                </mxCell>
                <mxCell id="559" value="" style="group" parent="1" vertex="1" connectable="0">
                    <mxGeometry x="940.25" y="145" width="167" height="50" as="geometry"/>
                </mxCell>
                <mxCell id="555" value="&lt;font style=&quot;font-size: 14px&quot;&gt;Block&lt;br&gt;Manager&lt;/font&gt;" style="rounded=0;whiteSpace=wrap;html=1;fontSize=14;strokeColor=none;fillColor=#345253;fontColor=#FFFFFF;" parent="559" vertex="1">
                    <mxGeometry x="87" width="80" height="50" as="geometry"/>
                </mxCell>
                <mxCell id="556" value="Thread&lt;br&gt;Pool" style="rounded=0;whiteSpace=wrap;html=1;fontSize=14;strokeColor=none;fillColor=#345253;fontColor=#FFFFFF;" parent="559" vertex="1">
                    <mxGeometry width="80" height="50" as="geometry"/>
                </mxCell>
                <mxCell id="560" value="" style="rounded=0;whiteSpace=wrap;html=1;fontSize=14;fontColor=#000000;fillColor=#EDF2F4;strokeColor=none;" parent="1" vertex="1">
                    <mxGeometry x="929.75" y="220" width="188" height="98" as="geometry"/>
                </mxCell>
                <mxCell id="561" value="&lt;font color=&quot;#345253&quot;&gt;Executor&lt;/font&gt;" style="text;html=1;strokeColor=none;fillColor=none;align=center;verticalAlign=middle;whiteSpace=wrap;rounded=0;fontSize=14;fontColor=#FFFFFF;fontStyle=1" parent="1" vertex="1">
                    <mxGeometry x="994.75" y="230" width="58" height="20" as="geometry"/>
                </mxCell>
                <mxCell id="562" value="" style="group" parent="1" vertex="1" connectable="0">
                    <mxGeometry x="940.25" y="255" width="167" height="50" as="geometry"/>
                </mxCell>
                <mxCell id="563" value="&lt;font style=&quot;font-size: 14px&quot;&gt;Block&lt;br&gt;Manager&lt;/font&gt;" style="rounded=0;whiteSpace=wrap;html=1;fontSize=14;strokeColor=none;fillColor=#345253;fontColor=#FFFFFF;" parent="562" vertex="1">
                    <mxGeometry x="87" width="80" height="50" as="geometry"/>
                </mxCell>
                <mxCell id="564" value="Thread&lt;br&gt;Pool" style="rounded=0;whiteSpace=wrap;html=1;fontSize=14;strokeColor=none;fillColor=#345253;fontColor=#FFFFFF;" parent="562" vertex="1">
                    <mxGeometry width="80" height="50" as="geometry"/>
                </mxCell>
                <mxCell id="569" value="SchedulerBackend" style="rounded=0;whiteSpace=wrap;html=1;fontSize=14;fontColor=#FFFFFF;strokeColor=#FFFFFF;fillColor=#345253;" parent="1" vertex="1">
                    <mxGeometry x="668.75" y="258.5" width="130" height="43" as="geometry"/>
                </mxCell>
                <mxCell id="572" value="&lt;font color=&quot;#345253&quot;&gt;Cluster Manager&lt;/font&gt;" style="text;html=1;strokeColor=none;fillColor=none;align=center;verticalAlign=middle;whiteSpace=wrap;rounded=0;fontSize=14;fontColor=#FFFFFF;fontStyle=1" parent="1" vertex="1">
                    <mxGeometry x="673.63" y="120" width="120.24" height="20" as="geometry"/>
                </mxCell>
                <mxCell id="573" value="TaskScheduler" style="rounded=0;whiteSpace=wrap;html=1;fontSize=14;fontColor=#FFFFFF;strokeColor=#FFFFFF;fillColor=#345253;" vertex="1" parent="1">
                    <mxGeometry x="668.75" y="157" width="130" height="43" as="geometry"/>
                </mxCell>
                <mxCell id="574" value="" style="shape=singleArrow;whiteSpace=wrap;html=1;fontSize=14;fontColor=#000000;arrowWidth=0.45185173882378343;arrowSize=0.2699998304579003;strokeColor=none;fillColor=#6E96A6;direction=south;" vertex="1" parent="1">
                    <mxGeometry x="704.25" y="213" width="20" height="32.5" as="geometry"/>
                </mxCell>
                <mxCell id="575" value="" style="shape=singleArrow;whiteSpace=wrap;html=1;fontSize=14;fontColor=#000000;arrowWidth=0.45185173882378343;arrowSize=0.2699998304579003;strokeColor=none;fillColor=#6E96A6;direction=north;" vertex="1" parent="1">
                    <mxGeometry x="743.25" y="213" width="20" height="32.5" as="geometry"/>
                </mxCell>
            </root>
        </mxGraphModel>
    </diagram>
</mxfile>